# xmcd CD database file
#
# Track frame offsets:
#	187
#	15065
#	28525
#	42437
#	58432
#	75177
#	91000
#	104867
#	117730
#	131407
#
# Disc length: 1949 seconds
#
# Revision: 2
# Processed by: cddbd v1.5.2PL0 Copyright (c) Steve Scherf et al.
# Submitted via: CDex 1.51
#
DISCID=79079b0a
DTITLE=Various Artist - Woman To Woman
DYEAR=1988
DGENRE=Country
TTITLE0=Reba McEntire - Last One To Know
TTITLE1=Loretta Lynn - Wouldn't It Be Great
TTITLE2=Patty Loveless - If My Heart Had Windows
TTITLE3=Nicolette Larson - When You Get A Little Lonely
TTITLE4=Nanci Griffith - Never Mind
TTITLE5=Reba McEntire - What Am I Gonna Do About You
TTITLE6=Loretta Lynn - Just A Woman
TTITLE7=Patty Loveless - Lonely Days, Lonely Nights
TTITLE8=Nicolette Larson - Only Love Will Make It Right
TTITLE9=Nanci Griffith - I Knew Love
EXTD=YEAR: 1988
EXTT0=Reba McEntire
EXTT1=Loretta Lynn
EXTT2=Patty Lovelace
EXTT3=Nicolette Larson
EXTT4=Nanci Griffith
EXTT5=Reba McEntire
EXTT6=Loretta Lynn
EXTT7=Patty Loveless
EXTT8=Nicolette Larson
EXTT9=Nanci Griffith
PLAYORDER=
